<svg width="55" height="55" viewBox="0 0 55 55" fill="none" xmlns="http://www.w3.org/2000/svg">
<rect width="55" height="55" rx="27.5" fill="url(#paint0_linear_82_19)" fill-opacity="0.9"/>
<path d="M29 13.5C29 12.6716 28.3284 12 27.5 12C26.6716 12 26 12.6716 26 13.5V41.5C26 42.3284 26.6716 43 27.5 43C28.3284 43 29 42.3284 29 41.5V13.5Z" fill="white"/>
<path d="M41.5 29C42.3284 29 43 28.3284 43 27.5C43 26.6716 42.3284 26 41.5 26L13.5 26C12.6716 26 12 26.6716 12 27.5C12 28.3284 12.6716 29 13.5 29H41.5Z" fill="white"/>
<defs>
<linearGradient id="paint0_linear_82_19" x1="-4.61607" y1="28" x2="60.4887" y2="27.3035" gradientUnits="userSpaceOnUse">
<stop stop-color="#3DC088"/>
<stop offset="1" stop-color="#0AA566"/>
</linearGradient>
</defs>
</svg>
