<svg width="30" height="30" viewBox="0 0 30 30" fill="none" xmlns="http://www.w3.org/2000/svg">
<g clip-path="url(#clip0_4_153)">
<path d="M15 27.1875V10.3125" stroke="white" stroke-linecap="round" stroke-linejoin="round"/>
<path d="M15 17.8125L9.375 15" stroke="white" stroke-linecap="round" stroke-linejoin="round"/>
<path d="M15 15L20.625 12.1875" stroke="white" stroke-linecap="round" stroke-linejoin="round"/>
<path d="M15.5274 21.2344C16.3876 21.8202 17.3602 22.2206 18.3835 22.4102C19.4067 22.5997 20.4583 22.5742 21.4711 22.3353C22.484 22.0964 23.4361 21.6493 24.2668 21.0225C25.0976 20.3957 25.7888 19.6028 26.2964 18.6944C26.8041 17.786 27.1172 16.7818 27.2157 15.7458C27.3143 14.7098 27.1961 13.6646 26.8688 12.6767C26.5415 11.6889 26.0122 10.7799 25.3146 10.0077C24.6169 9.23553 23.7662 8.61697 22.8165 8.19139C22.608 8.08656 22.4423 7.9126 22.3477 7.69921C21.7402 6.2519 20.7188 5.01624 19.4116 4.14728C18.1044 3.27832 16.5697 2.81476 15.0001 2.81476C13.4304 2.81476 11.8957 3.27832 10.5886 4.14728C9.2814 5.01624 8.25996 6.2519 7.65243 7.69921C7.55789 7.9126 7.39221 8.08656 7.18368 8.19139C6.234 8.61697 5.38327 9.23553 4.68562 10.0077C3.98796 10.7799 3.45865 11.6889 3.13134 12.6767C2.80403 13.6646 2.68589 14.7098 2.78443 15.7458C2.88298 16.7818 3.19605 17.786 3.70373 18.6944C4.21142 19.6028 4.9026 20.3957 5.73333 21.0225C6.56406 21.6493 7.51614 22.0964 8.52903 22.3353C9.54192 22.5742 10.5934 22.5997 11.6167 22.4102C12.64 22.2206 13.6126 21.8202 14.4727 21.2344C14.6294 21.1315 14.8127 21.0767 15.0001 21.0767C15.1875 21.0767 15.3708 21.1315 15.5274 21.2344Z" stroke="white" stroke-linecap="round" stroke-linejoin="round"/>
</g>
<defs>
<clipPath id="clip0_4_153">
<rect width="30" height="30" fill="white"/>
</clipPath>
</defs>
</svg>
