<svg width="40" height="40" viewBox="0 0 40 40" fill="none" xmlns="http://www.w3.org/2000/svg">
<rect width="40" height="40" rx="20" fill="#C4E69A" fill-opacity="0.76"/>
<path d="M19.9999 24.7826C22.6413 24.7826 24.7825 22.6414 24.7825 20C24.7825 17.3586 22.6413 15.2174 19.9999 15.2174C17.3585 15.2174 15.2173 17.3586 15.2173 20C15.2173 22.6414 17.3585 24.7826 19.9999 24.7826Z" stroke="white" stroke-linecap="round" stroke-linejoin="round"/>
<path d="M25.2609 9H14.7391C11.5695 9 9 11.5695 9 14.7391V25.2609C9 28.4305 11.5695 31 14.7391 31H25.2609C28.4305 31 31 28.4305 31 25.2609V14.7391C31 11.5695 28.4305 9 25.2609 9Z" stroke="white" stroke-linecap="round" stroke-linejoin="round"/>
<path d="M26.6738 13.7826C26.6738 14.0347 26.4694 14.2391 26.2173 14.2391C25.9651 14.2391 25.7607 14.0347 25.7607 13.7826C25.7607 13.5305 25.9651 13.3261 26.2173 13.3261C26.4694 13.3261 26.6738 13.5305 26.6738 13.7826Z" fill="black" stroke="white"/>
</svg>
