<svg width="60" height="60" viewBox="0 0 60 60" fill="none" xmlns="http://www.w3.org/2000/svg">
<g clip-path="url(#clip0_36_15)">
<path fill-rule="evenodd" clip-rule="evenodd" d="M17.7 24.3L13.5 28.5L27 42L57 12L52.8 7.8L27 33.6L17.7 24.3ZM54 30C54 43.2 43.2 54 30 54C16.8 54 6 43.2 6 30C6 16.8 16.8 6 30 6C32.4 6 34.5 6.3 36.6 6.9L41.4 2.1C37.8 0.9 33.9 0 30 0C13.5 0 0 13.5 0 30C0 46.5 13.5 60 30 60C46.5 60 60 46.5 60 30H54Z" fill="url(#paint0_linear_36_15)" fill-opacity="0.9"/>
</g>
<defs>
<linearGradient id="paint0_linear_36_15" x1="-5.03571" y1="30.5455" x2="65.9877" y2="29.7856" gradientUnits="userSpaceOnUse">
<stop offset="0.485577" stop-color="#3DC088"/>
<stop offset="1" stop-color="#0AA566"/>
</linearGradient>
<clipPath id="clip0_36_15">
<rect width="60" height="60" fill="white"/>
</clipPath>
</defs>
</svg>
